<svg id="negative-blob-displacement" viewBox="0 0 30 20"  xmlns="http://www.w3.org/2000/svg">
<g clip-path="url(#clip0_52_14)">
<path  d="M28.9743 9.87577C25.0319 12.066 15.2358 18.079 12.3687 18.7958C11.6121 18.9949 10.8555 19.0745 10.0192 19.0745C4.76276 19.0745 0.462036 14.8136 0.462036 9.51738C0.462036 4.26093 4.72294 -0.0397949 10.0192 -0.0397949C10.8156 -0.0397949 11.6121 0.0796697 12.3687 0.238956C12.7669 0.318599 13.2448 0.517707 13.8819 0.796458L12.2094 3.66361L14.0412 4.73879L15.7933 1.71235C19.9348 3.82289 26.0673 7.5263 28.9743 9.15898C29.0937 9.23862 29.1734 9.35809 29.1734 9.47755C29.1734 9.63684 29.0937 9.7563 28.9743 9.79613V9.87577Z" />
</g>
<defs>
<clipPath id="clip0_52_14">
<rect width="28.6753" height="19.0745" fill="white" transform="translate(0.5)"/>
</clipPath>
</defs>
</svg>
