<svg width="30" height="20" viewBox="0 0 30 20" fill="none" xmlns="http://www.w3.org/2000/svg">
<g clip-path="url(#clip0_52_11)">
<path fill-rule="evenodd" clip-rule="evenodd" d="M0.507935 8.58195C0.973923 3.76674 5.05132 0 10.0219 0C10.8373 0 11.614 0.116497 12.3518 0.271826C15.2254 1.00964 25.0111 6.98982 28.972 9.20326C29.0885 9.28093 29.1662 9.39743 29.1662 9.51392C29.1662 9.66925 29.0885 9.78575 28.972 9.82458C25.0111 12.038 15.2254 18.0182 12.3518 18.756C11.614 18.9502 10.8373 19.0278 10.0219 19.0278C5.28431 19.0278 1.32341 15.5718 0.585599 11.0284H4.04168V8.54312H0.507935L0.507935 8.58195Z" fill="#6F4B2B"/>
</g>
<defs>
<clipPath id="clip0_52_11">
<rect width="28.6741" height="19.1055" fill="white" transform="translate(0.5)"/>
</clipPath>
</defs>
</svg>
