<svg width="30" height="20" viewBox="0 0 30 20" fill="none" xmlns="http://www.w3.org/2000/svg">
<g clip-path="url(#clip0_52_5)">
<path fill-rule="evenodd" clip-rule="evenodd" d="M12.3902 0.271938C15.265 1.01006 25.0548 6.99269 29.0173 9.20705C29.1339 9.28474 29.2116 9.40129 29.2116 9.51784C29.2116 9.67323 29.1339 9.78977 29.0173 9.82862C25.0548 12.043 15.265 18.0256 12.3902 18.7637C11.6521 18.958 10.8752 19.0357 10.0593 19.0357C4.77597 19.0357 0.541504 14.7624 0.541504 9.51784C0.541504 4.23447 4.81482 0 10.0593 0C10.8752 0 11.6521 0.116545 12.3902 0.271938ZM5.94142 13.7135L9.20468 9.0905L6.21336 4.81719H8.07808L9.47661 6.915C9.74855 7.30348 9.94279 7.61427 10.0982 7.88621C10.3701 7.53657 10.5644 7.18694 10.7975 6.915L12.2737 4.81719H14.0996L11.0694 9.0905L14.2938 13.7135H12.4679L10.6421 10.9552L10.2147 10.2948L7.84499 13.7135H6.01912H5.94142Z" fill="#AFB0B2"/>
</g>
<defs>
<clipPath id="clip0_52_5">
<rect width="28.6753" height="19.0745" fill="white" transform="translate(0.5)"/>
</clipPath>
</defs>
</svg>
