<svg width="221" height="376" viewBox="0 0 221 376" fill="none" xmlns="http://www.w3.org/2000/svg">
<g clip-path="url(#clip0_35_2)">
<path fill-rule="evenodd" clip-rule="evenodd" d="M219.297 52.5975V73.2625L198.632 52.5975H219.297Z" fill="#C5C6C6"/>
<path fill-rule="evenodd" clip-rule="evenodd" d="M219.285 104.098V124.763L198.62 104.098H219.285Z" fill="#C5C6C6"/>
<path fill-rule="evenodd" clip-rule="evenodd" d="M219.285 156.162C219.285 163.168 218.949 168.826 218.254 175.796L198.62 156.162C205.506 156.162 212.399 156.162 219.285 156.162Z" fill="#C5C6C6"/>
<path fill-rule="evenodd" clip-rule="evenodd" d="M211.883 212.458C210.067 219.23 208.281 224.6 205.806 231.157L191.919 207.106C198.572 208.886 205.225 210.672 211.877 212.452L211.883 212.458Z" fill="#C5C6C6"/>
<path fill-rule="evenodd" clip-rule="evenodd" d="M189.906 265.313C186.4 271.384 183.283 276.113 179.196 281.801L172.01 254.98C177.973 258.427 183.942 261.867 189.906 265.313Z" fill="#C5C6C6"/>
<path fill-rule="evenodd" clip-rule="evenodd" d="M154.977 310.568C150.02 315.525 145.789 319.283 140.365 323.724V295.957C145.237 300.829 150.104 305.696 154.977 310.568Z" fill="#C5C6C6"/>
<path fill-rule="evenodd" clip-rule="evenodd" d="M109.769 345.36C103.698 348.866 98.6393 351.401 92.2504 354.284L99.4364 327.464C102.883 333.427 106.323 339.396 109.769 345.36Z" fill="#C5C6C6"/>
<path fill-rule="evenodd" clip-rule="evenodd" d="M56.9796 366.918C50.2072 368.734 44.6633 369.872 37.747 371.005L51.6336 346.954C53.4136 353.607 55.1996 360.259 56.9796 366.912V366.918Z" fill="#C5C6C6"/>
<path fill-rule="evenodd" clip-rule="evenodd" d="M219.285 6.64662V21.6419L198.62 0.976929H213.615C216.738 0.976929 219.285 3.52409 219.285 6.64662Z" fill="#C5C6C6"/>
<path d="M168.102 52.2978V6.34096C168.102 3.21843 170.649 0.671265 173.772 0.671265H214.059C217.181 0.671265 219.729 3.21843 219.729 6.34096V52.2978" stroke="#C5C6C6" stroke-width="1.33052" stroke-miterlimit="22.9256"/>
<path d="M168.102 103.924V52.2979" stroke="#C5C6C6" stroke-width="1.33052" stroke-miterlimit="22.9256"/>
<path d="M219.729 52.2979V103.924" stroke="#C5C6C6" stroke-width="1.33052" stroke-miterlimit="22.9256"/>
<path d="M168.102 155.551V103.924" stroke="#C5C6C6" stroke-width="1.33052" stroke-miterlimit="22.9256"/>
<path d="M219.729 103.924V155.551" stroke="#C5C6C6" stroke-width="1.33052" stroke-miterlimit="22.9256"/>
<path d="M219.729 155.551C219.729 274.59 124.782 371.455 6.48581 374.535C4.89757 374.577 3.51911 374.038 2.38038 372.929C1.24164 371.82 0.666283 370.454 0.666283 368.866V328.554C0.666283 325.498 3.09958 322.987 6.15617 322.891C96.0861 319.996 168.102 246.182 168.102 155.545" stroke="#C5C6C6" stroke-width="1.33052" stroke-miterlimit="22.9256"/>
<path d="M50.7526 365.449H49.6977V358.725C49.446 358.971 49.1104 359.21 48.6968 359.456C48.2833 359.696 47.9117 359.882 47.5821 360.001V358.983C48.1694 358.707 48.6908 358.371 49.1284 357.976C49.5719 357.58 49.8835 357.203 50.0693 356.825H50.7466V365.455L50.7526 365.449Z" fill="#F2F1EF"/>
<path d="M104.189 345.605V346.612H98.5014C98.4954 346.361 98.5374 346.115 98.6273 345.881C98.7711 345.498 99.0049 345.114 99.3285 344.736C99.6522 344.365 100.108 343.933 100.707 343.442C101.636 342.675 102.271 342.069 102.601 341.62C102.931 341.17 103.098 340.751 103.098 340.349C103.098 339.93 102.948 339.582 102.649 339.288C102.349 339.001 101.96 338.857 101.474 338.857C100.965 338.857 100.557 339.007 100.251 339.312C99.9458 339.612 99.79 340.032 99.79 340.571L98.7112 340.463C98.7831 339.654 99.0648 339.037 99.5503 338.617C100.036 338.192 100.689 337.982 101.504 337.982C102.325 337.982 102.984 338.21 103.464 338.665C103.943 339.121 104.189 339.69 104.189 340.367C104.189 340.709 104.117 341.051 103.979 341.38C103.841 341.716 103.608 342.063 103.278 342.435C102.948 342.801 102.409 343.304 101.654 343.945C101.019 344.479 100.611 344.838 100.431 345.03C100.251 345.222 100.102 345.408 99.9878 345.599H104.207L104.189 345.605Z" fill="#F2F1EF"/>
<path d="M142.87 312.75L143.925 312.606C144.045 313.206 144.249 313.637 144.542 313.901C144.83 314.164 145.189 314.296 145.609 314.296C146.106 314.296 146.532 314.122 146.874 313.781C147.215 313.439 147.383 313.014 147.383 312.504C147.383 312.019 147.227 311.617 146.91 311.306C146.592 310.994 146.19 310.832 145.699 310.832C145.501 310.832 145.249 310.874 144.956 310.952L145.076 310.029C145.148 310.035 145.201 310.041 145.243 310.041C145.693 310.041 146.1 309.921 146.46 309.687C146.82 309.454 146.999 309.094 146.999 308.609C146.999 308.225 146.868 307.901 146.604 307.65C146.34 307.398 146.005 307.272 145.591 307.272C145.178 307.272 144.836 307.404 144.56 307.662C144.285 307.919 144.111 308.309 144.033 308.83L142.978 308.639C143.11 307.931 143.397 307.38 143.859 306.99C144.314 306.601 144.884 306.409 145.567 306.409C146.035 306.409 146.466 306.511 146.862 306.709C147.257 306.907 147.557 307.182 147.767 307.53C147.976 307.877 148.078 308.249 148.078 308.639C148.078 309.01 147.976 309.346 147.779 309.651C147.581 309.957 147.281 310.197 146.892 310.377C147.401 310.491 147.797 310.736 148.078 311.108C148.36 311.473 148.498 311.941 148.498 312.492C148.498 313.241 148.222 313.883 147.677 314.404C147.131 314.926 146.436 315.183 145.603 315.183C144.848 315.183 144.225 314.956 143.727 314.506C143.23 314.057 142.942 313.475 142.876 312.756L142.87 312.75Z" fill="#F2F1EF"/>
<path d="M181.713 272.139V270.09H177.979V269.119L181.905 263.551H182.768V269.119H183.93V270.09H182.768V272.139H181.713ZM181.713 269.113V265.247L179.016 269.113H181.713Z" fill="#F2F1EF"/>
<path d="M201.611 219.2L202.713 219.116C202.797 219.656 202.983 220.057 203.283 220.333C203.577 220.603 203.942 220.74 204.368 220.74C204.883 220.74 205.315 220.549 205.662 220.165C206.01 219.781 206.184 219.272 206.184 218.643C206.184 218.043 206.016 217.564 205.686 217.216C205.351 216.869 204.913 216.695 204.362 216.695C204.02 216.695 203.714 216.773 203.445 216.929C203.175 217.084 202.965 217.288 202.809 217.534L201.814 217.39L202.642 212.973H206.903V213.98H203.487L203.031 216.299C203.547 215.94 204.086 215.76 204.649 215.76C205.398 215.76 206.028 216.018 206.543 216.539C207.059 217.06 207.316 217.726 207.316 218.541C207.316 219.32 207.089 219.991 206.639 220.555C206.088 221.25 205.339 221.597 204.386 221.597C203.606 221.597 202.971 221.376 202.474 220.938C201.982 220.501 201.701 219.919 201.629 219.194L201.611 219.2Z" fill="#F2F1EF"/>
<path d="M216.396 160.352L215.353 160.436C215.258 160.022 215.126 159.722 214.952 159.531C214.664 159.231 214.311 159.081 213.891 159.081C213.555 159.081 213.256 159.177 212.992 159.363C212.662 159.602 212.399 159.956 212.207 160.424C212.015 160.891 211.913 161.55 211.907 162.407C212.159 162.024 212.471 161.73 212.842 161.544C213.208 161.359 213.591 161.263 213.999 161.263C214.7 161.263 215.305 161.52 215.797 162.042C216.288 162.557 216.54 163.228 216.54 164.05C216.54 164.589 216.426 165.086 216.192 165.554C215.959 166.015 215.641 166.369 215.234 166.621C214.826 166.866 214.365 166.992 213.849 166.992C212.974 166.992 212.255 166.669 211.697 166.021C211.146 165.374 210.864 164.307 210.864 162.827C210.864 161.167 211.17 159.956 211.787 159.207C212.321 158.554 213.046 158.224 213.957 158.224C214.634 158.224 215.192 158.416 215.623 158.793C216.055 159.171 216.312 159.692 216.402 160.364L216.396 160.352ZM212.075 164.061C212.075 164.427 212.153 164.775 212.309 165.104C212.465 165.434 212.68 165.686 212.95 165.865C213.226 166.039 213.519 166.129 213.825 166.129C214.275 166.129 214.658 165.949 214.976 165.59C215.293 165.23 215.455 164.745 215.455 164.121C215.455 163.528 215.299 163.061 214.982 162.719C214.67 162.377 214.269 162.204 213.783 162.204C213.31 162.204 212.902 162.377 212.567 162.719C212.237 163.061 212.069 163.51 212.069 164.067L212.075 164.061Z" fill="#F2F1EF"/>
<path d="M210.984 107.185V106.178H216.54V106.993C215.995 107.574 215.449 108.347 214.916 109.312C214.377 110.277 213.963 111.272 213.669 112.297C213.46 113.016 213.322 113.807 213.268 114.658H212.189C212.201 113.981 212.333 113.166 212.585 112.207C212.836 111.248 213.202 110.325 213.675 109.432C214.149 108.539 214.652 107.79 215.186 107.185H210.984Z" fill="#F2F1EF"/>
<path d="M212.525 58.6987C212.087 58.5368 211.763 58.3091 211.548 58.0154C211.338 57.7158 211.23 57.3621 211.23 56.9486C211.23 56.3253 211.452 55.7979 211.901 55.3724C212.351 54.9468 212.944 54.7311 213.693 54.7311C214.442 54.7311 215.048 54.9468 215.503 55.3844C215.959 55.8219 216.186 56.3493 216.186 56.9786C216.186 57.3741 216.085 57.7218 215.875 58.0214C215.665 58.3151 215.353 58.5428 214.922 58.7047C215.449 58.8785 215.845 59.1542 216.121 59.5377C216.396 59.9213 216.534 60.3768 216.534 60.9102C216.534 61.6414 216.276 62.2587 215.755 62.7621C215.234 63.2596 214.55 63.5113 213.705 63.5113C212.86 63.5113 212.177 63.2596 211.656 62.7621C211.14 62.2587 210.876 61.6354 210.876 60.8862C210.876 60.3288 211.02 59.8614 211.302 59.4838C211.584 59.1062 211.991 58.8485 212.513 58.7166L212.525 58.6987ZM212.315 56.9067C212.315 57.3142 212.447 57.6438 212.704 57.9075C212.962 58.1653 213.304 58.2971 213.729 58.2971C214.137 58.2971 214.472 58.1713 214.73 57.9135C214.988 57.6558 215.114 57.3442 215.114 56.9726C215.114 56.583 214.982 56.2594 214.718 55.9957C214.454 55.732 214.119 55.6001 213.717 55.6001C213.31 55.6001 212.98 55.732 212.71 55.9897C212.447 56.2474 212.315 56.5531 212.315 56.9186V56.9067ZM211.967 60.8802C211.967 61.1799 212.039 61.4736 212.177 61.7553C212.315 62.037 212.531 62.2527 212.812 62.4085C213.094 62.5644 213.4 62.6423 213.717 62.6423C214.227 62.6423 214.64 62.4805 214.97 62.1568C215.293 61.8332 215.455 61.4196 215.455 60.9222C215.455 60.4128 215.287 59.9932 214.952 59.6636C214.616 59.334 214.191 59.1661 213.681 59.1661C213.184 59.1661 212.77 59.328 212.447 59.6576C212.123 59.9872 211.961 60.3948 211.961 60.8862L211.967 60.8802Z" fill="#F2F1EF"/>
<path d="M211.056 10.0268L212.063 9.94291C212.147 10.4164 212.315 10.764 212.555 10.9798C212.794 11.1955 213.106 11.3034 213.49 11.3034C213.813 11.3034 214.095 11.2315 214.341 11.0816C214.586 10.9318 214.784 10.734 214.94 10.4883C215.096 10.2426 215.222 9.90695 215.329 9.48142C215.437 9.06189 215.485 8.63037 215.485 8.19286C215.485 8.14491 215.485 8.07299 215.479 7.98309C215.27 8.31872 214.982 8.59441 214.616 8.79819C214.251 9.00795 213.855 9.10984 213.43 9.10984C212.722 9.10984 212.117 8.85213 211.626 8.3367C211.134 7.82127 210.888 7.14403 210.888 6.29897C210.888 5.42394 211.146 4.72871 211.656 4.19531C212.165 3.66789 212.812 3.39819 213.585 3.39819C214.143 3.39819 214.652 3.54803 215.114 3.84769C215.575 4.14736 215.929 4.57289 216.169 5.13626C216.408 5.69364 216.528 6.49675 216.528 7.55157C216.528 8.64835 216.408 9.52338 216.175 10.1707C215.935 10.8239 215.581 11.3154 215.108 11.657C214.64 11.9986 214.089 12.1664 213.454 12.1664C212.782 12.1664 212.231 11.9806 211.805 11.6091C211.38 11.2375 211.128 10.7101 211.038 10.0328L211.056 10.0268ZM215.365 6.23903C215.365 5.63371 215.204 5.15424 214.886 4.80063C214.568 4.44703 214.179 4.26723 213.723 4.26723C213.25 4.26723 212.842 4.45901 212.501 4.83659C212.153 5.22017 211.985 5.71162 211.985 6.32294C211.985 6.86833 212.147 7.31184 212.477 7.65346C212.806 7.99508 213.214 8.16289 213.699 8.16289C214.185 8.16289 214.586 7.99508 214.904 7.65346C215.216 7.31184 215.371 6.83837 215.371 6.23304L215.365 6.23903Z" fill="#F2F1EF"/>
</g>
<defs>
<clipPath id="clip0_35_2">
<rect width="220.395" height="375.207" fill="white"/>
</clipPath>
</defs>
</svg>
